<?xml version="1.0"?>
<svg width="112" height="115" xmlns="http://www.w3.org/2000/svg">

 <g>
  <title>background</title>
  <rect fill="none" id="canvas_background" height="402" width="582" y="-1" x="-1"/>
 </g>
 <g>
  <title>Layer 1</title>
  <path id="svg_1" d="m18.200001,1.2l0,10.6" stroke-opacity="null" stroke-linecap="null" stroke-linejoin="null" stroke-width="1.5" stroke="#231F20" fill-opacity="null" fill="none"/>
  <path id="svg_2" d="m18.200001,39.700001l0,74.100002" stroke-opacity="null" stroke-linecap="null" stroke-linejoin="null" stroke-width="1.5" stroke="#231F20" fill-opacity="null" fill="none"/>
  <path id="svg_3" d="m56.099998,113.800003l0,-13.100006" stroke-opacity="null" stroke-linecap="null" stroke-linejoin="null" stroke-width="1.5" stroke="#231F20" fill-opacity="null" fill="none"/>
  <path id="svg_4" d="m56.099998,73.5l0,-72.3" stroke-opacity="null" stroke-linecap="null" stroke-linejoin="null" stroke-width="1.5" stroke="#231F20" fill-opacity="null" fill="none"/>
  <path id="svg_5" d="m93.800003,34l0,-32.8" stroke-opacity="null" stroke-linecap="null" stroke-linejoin="null" stroke-width="1.5" stroke="#231F20" fill-opacity="null" fill="none"/>
  <path id="svg_6" d="m93.800003,113.800003l0,-52.300003" stroke-opacity="null" stroke-linecap="null" stroke-linejoin="null" stroke-width="1.5" stroke="#231F20" fill-opacity="null" fill="none"/>
  <path id="svg_7" d="m4.3,25.799999c0,-7.679558 6.220442,-13.9 13.900001,-13.9c7.679558,0 13.899998,6.220442 13.899998,13.9c0,7.679558 -6.22044,13.900002 -13.899998,13.900002c-7.679559,0 -13.900001,-6.220444 -13.900001,-13.900002z" stroke-opacity="null" stroke-linecap="null" stroke-linejoin="null" stroke-width="1.5" stroke="#231F20" fill-opacity="null" fill="none"/>
  <path id="svg_8" d="m42.200001,86.800003c0,-7.679558 6.22044,-13.900002 13.899998,-13.900002c7.679558,0 13.900002,6.220444 13.900002,13.900002c0,7.679558 -6.220444,13.899994 -13.900002,13.899994c-7.679558,0 -13.899998,-6.220436 -13.899998,-13.899994z" stroke-opacity="null" stroke-linecap="null" stroke-linejoin="null" stroke-width="1.5" stroke="#231F20" fill-opacity="null" fill="none"/>
  <path id="svg_9" d="m79.900002,47.900002c0,-7.679558 6.220444,-13.900002 13.900002,-13.900002c7.679558,0 13.899994,6.220444 13.899994,13.900002c0,7.679558 -6.220436,13.899998 -13.899994,13.899998c-7.679558,0 -13.900002,-6.22044 -13.900002,-13.899998z" stroke-opacity="null" stroke-linecap="null" stroke-linejoin="null" stroke-width="1.5" stroke="#231F20" fill-opacity="null" fill="none"/>
 </g>
</svg>