<?xml version="1.0"?>
<svg width="112" height="115" xmlns="http://www.w3.org/2000/svg">

 <g>
  <title>background</title>
  <rect fill="none" id="canvas_background" height="402" width="582" y="-1" x="-1"/>
 </g>
 <g>
  <title>Layer 1</title>
  <path id="svg_1" d="m89.400002,110.800003l-86.100002,0c-0.7,0 -1.3,-0.600006 -1.3,-1.300003l0,-104c0,-0.7 0.6,-1.3 1.3,-1.3l86.100002,0c0.699997,0 1.299995,0.6 1.299995,1.3l0,25.4" stroke-miterlimit="10" stroke-width="1.5" stroke="#231F20" fill="none" clip-rule="evenodd" fill-rule="evenodd"/>
  <path id="svg_2" d="m2.2,18.299999l88.700001,0" stroke-opacity="null" stroke-linecap="null" stroke-linejoin="null" stroke-width="1.5" stroke="#231F20" fill-opacity="null" fill="none"/>
  <path id="svg_3" d="m54.700001,18.299999l0,92.600002" stroke-opacity="null" stroke-linecap="null" stroke-linejoin="null" stroke-width="1.5" stroke="#231F20" fill-opacity="null" fill="none"/>
  <path id="svg_4" d="m1.9,78l52.800001,0" stroke-opacity="null" stroke-linecap="null" stroke-linejoin="null" stroke-width="1.5" stroke="#231F20" fill-opacity="null" fill="none"/>
  <path id="svg_5" d="m110.099998,107.400002c0,1.900002 -1.5,3.400002 -3.400002,3.400002l-31,0c-1.899994,0 -3.399994,-1.5 -3.399994,-3.400002l0,-73.200001c0,-1.900002 1.5,-3.400002 3.399994,-3.400002l31,0c1.900002,0 3.400002,1.5 3.400002,3.400002l0,73.200001z" stroke-miterlimit="10" stroke-width="1.5" stroke="#231F20" fill="none"/>
  <path id="svg_6" d="m86.900002,100.699997c0,-2.430939 1.969063,-4.399994 4.400002,-4.399994c2.430939,0 4.399994,1.969055 4.399994,4.399994c0,2.430939 -1.969055,4.400002 -4.399994,4.400002c-2.430939,0 -4.400002,-1.969063 -4.400002,-4.400002z" stroke-opacity="null" stroke-linecap="null" stroke-linejoin="null" stroke-width="1.5" stroke="#231F20" fill-opacity="null" fill="none"/>
 </g>
</svg>